<!--?xml version="1.0" encoding="utf-8"?-->
<!-- Generator: Adobe Illustrator 22.1.0, SVG Export Plug-In . SVG Version: 6.00 Build 0)  -->
<svg version="1.1" id="Ebene_2" xmlns="http://www.w3.org/2000/svg" xmlns:xlink="http://www.w3.org/1999/xlink" x="0px" y="0px" viewBox="0 0 401.7 99.8" style="enable-background:new 0 0 401.7 99.8;" xml:space="preserve">
<style type="text/css">
	.logo-tg-st0{fill:#ED1B2F;}
	.logo-tg-st1{fill:#FFFFFF;}
	.logo-tg-st2{clip-path:url(#LOGO_TG_SVGID_2_);fill:url(#LOGO_TG_SVGID_3_);}
	.logo-tg-st3{clip-path:url(#LOGO_TG_SVGID_5_);fill:url(#LOGO_TG_SVGID_6_);}
</style>
<g>
	<path class="logo-tg-st0" d="M235.2,64.4c4,0,8.2-0.8,10.8-1.6V47.5h-11.8v4.7h5.2v7.5c-0.9,0.3-2.3,0.5-4,0.5c-6.4,0-10.8-4.4-10.8-10.8
		c0-6.1,4-10.6,10.5-10.6c4,0,6.4,1.1,8.5,2c0.5-1.1,1.2-2.7,1.2-3.6c0-0.9-0.6-1.7-1.9-2c-1.9-0.5-4.3-0.7-6.8-0.7
		c-11.7,0-18.7,6-18.7,15.3c0,4.3,1.6,8.1,4.6,10.7C224.9,63.1,229.3,64.4,235.2,64.4L235.2,64.4z M380.7,40.4
		c-1.6,0-2.2,0.6-2.2,2.9c0,0.6,0.1,1.3,0.1,1.6h6.8v19h5.9V44.9h4.7c1.6,0,2.2-0.6,2.2-2.9c0-0.6-0.1-1.3-0.1-1.6h-17.4V40.4z
		 M139.9,64.8c1.7,0,3.7-0.8,3.7-0.8l-1.9-6.7c-0.7-2.5-1.8-3.7-3.5-4.4l0,0c2.3-0.8,4.6-2.8,4.6-5.8c0-4.8-3.8-6.8-10.9-6.8
		c-3.2,0-6,0.2-7.9,0.5V64h5.9v-9.5h1.7c2.5,0,3.7,1.2,4.4,4l1.2,4.2C137.5,64,138.4,64.8,139.9,64.8L139.9,64.8z M132.1,51.1h-2.3
		v-6.9c0.4-0.1,1.2-0.3,2.5-0.3c2.6,0,4.5,1,4.5,3.7C136.8,49.6,135,51.1,132.1,51.1L132.1,51.1z M365.6,54.1h7.1v-4.4h-7.1v-4.8
		h8.1c1.6,0,2.2-0.6,2.2-2.9c0-0.6-0.1-1.3-0.1-1.6h-16.1v23.6h16.6c0-0.3,0.1-0.9,0.1-1.6c0-2.3-0.6-2.9-2.2-2.9h-8.6V54.1z
		 M103.4,40.4c-1.6,0-2.2,0.6-2.2,2.9c0,0.6,0.1,1.4,0.1,1.7h6.8v19h5.9v-19h4.7c1.6,0,2.2-0.6,2.2-2.9c0-0.6-0.1-1.4-0.1-1.7H103.4
		z M287.9,64.4c6.9,0,10.9-3.4,10.9-10.7V42.8c0-2.1-1.4-2.7-3-2.7c-1.4,0-2,0.2-2.9,0.7V54c0,4.2-1.7,6.2-4.8,6.2
		c-3,0-4.8-2.1-4.8-6.2V42.8c0-2.1-1.4-2.7-3-2.7c-1.4,0-2,0.2-2.9,0.7v12.8C277.4,61.1,281.2,64.4,287.9,64.4L287.9,64.4z
		 M336.5,42.5c-0.5-1.6-1.6-2.4-4.7-2.4c-1.4,0-2.8,0.3-3.9,0.7L326.1,64h5.5c0.6-11.9,0.8-15.5,0.9-18.7h0.1
		c1.4,6.2,3.5,12.1,5.4,18.3h4.6c3.5-9.7,5.1-15.1,5.9-18.3h0.1c-0.1,4,0.5,15.1,0.7,18.7h5.8l-1.3-23.2c-1-0.4-2.6-0.7-3.9-0.7
		c-2.6,0-4.1,0.6-4.7,2.5c-1.9,6-3.7,12.1-4.3,14.2h-0.2C339.7,52,337.6,45.9,336.5,42.5L336.5,42.5z M261.6,64.4
		c7.7,0,12.1-4.6,12.1-12.4c0-6.5-3.7-11.9-11.7-11.9c-7.7,0-12,4.9-12,11.9C250,58.7,253.8,64.4,261.6,64.4L261.6,64.4z
		 M261.8,60.2c-4.1,0-5.7-4.2-5.7-8.3s1.6-7.6,5.7-7.6s5.7,3.9,5.7,7.9C267.5,56.4,265.9,60.2,261.8,60.2L261.8,60.2z M161.2,58
		l1.8,6h6.4c0,0-6.5-18.9-7.1-20.4c-0.9-2.4-2.4-3.5-5-3.5c-1.5,0-3,0.3-4.2,0.9c-0.6,1.9-7.6,23-7.6,23h6.2l1.6-6H161.2z M154.2,54
		l2.8-9.5h0.1l3,9.5H154.2z M179.6,42c-1-1.4-2.1-1.9-4.1-1.9c-1.3,0-2.7,0.2-3.7,0.7V64h5.5v-7.1c0-3-0.1-7.1-0.3-10.3h0.2
		c1.2,2.3,4.8,8.6,7.3,12.7l2.9,4.7h6.2V42.8c0-2.1-1.2-2.7-2.7-2.7c-1.3,0-1.9,0.2-2.7,0.7v6.6c0,2.4,0.1,6.7,0.5,9.8h-0.1
		C186.1,52.7,184.1,48.5,179.6,42L179.6,42z M205.5,64.4c6.4,0,9.4-3.4,9.4-7.4s-2.2-5.7-6.9-7.2c-3.5-1.1-4.4-1.5-4.4-3.1
		c0-1.4,0.9-2.4,4.1-2.4c2.8,0,4.3,0.9,5.5,1.5c0,0,1-1.8,1-3c0-0.8-0.5-1.4-1.6-1.8c-1.2-0.4-3-0.9-6-0.9c-5.5,0-9.1,2.7-9.1,6.7
		c0,3.8,2.5,5.5,6.9,6.9c3.7,1.1,4.4,2,4.4,3.5c0,2-1.3,2.9-4.2,2.9c-2.7,0-4.8-1-6.3-1.8c0,0-1.1,2.2-1.1,3.2
		c0,1.1,0.6,1.5,1.6,1.9C200.2,64,202.3,64.4,205.5,64.4L205.5,64.4z M319.4,64.8c1.7,0,3.7-0.8,3.7-0.8l-1.9-6.7
		c-0.7-2.5-1.8-3.7-3.5-4.4l0,0c2.3-0.8,4.6-2.8,4.6-5.8c0-4.8-3.8-6.8-10.9-6.8c-3.2,0-6,0.2-7.9,0.5V64h5.9v-9.5h1.7
		c2.5,0,3.7,1.2,4.4,4l1.2,4.2C317,64,317.9,64.8,319.4,64.8L319.4,64.8z M311.6,51.1h-2.3v-6.9c0.4-0.1,1.2-0.3,2.5-0.3
		c2.6,0,4.5,1,4.5,3.7C316.4,49.6,314.6,51.1,311.6,51.1z"></path>
	<g>
		<g>
			<path class="logo-tg-st1" d="M12.3,47.3c0,0.2,0,0.6,0.5,0.9c0.9,0.5,7.8,2.8,15.4,2.1c7.3-0.7,9.1-1.5,9.6-2.6c0.1-0.2,0.3-0.6,0.2-1.2
				c0-0.2-0.1-0.3-0.1-0.4c-0.5-1.2-1.5-1-2.4-0.7c-0.1,0-0.8,0.2-0.8,0.2c-1.3,0.4-4,1.2-9.9,1.3c-5.1,0.1-8.3-0.5-9.8-0.8
				l-1.3-0.2C13.1,46.1,12.4,46.7,12.3,47.3 M37.9,46.6L37.9,46.6L37.9,46.6z"></path>
			<path class="logo-tg-st1" d="M13.5,40l-0.2,0.6v0.2c0.1,0.4,0.2,1.4,1.5,1.5l0.4,0.1c1.5,0.2,4.6,0.7,9.8,0.6h4.9c2.5,0,3.5,0,3.9-0.2
				c0.5-0.4,0.5-0.5,0.5-0.9v-0.3c0-1.2-1.2-1.4-2.4-1.4h-1.7l-6.7-0.1c-2.5-0.1-5.2-0.5-7-0.7l-1.7-0.2
				C14.4,39.2,13.8,39.6,13.5,40"></path>
			<g>
				<g>
					<defs>
						<path id="SVGID_1_" d="M27.7,77.5C13.4,76.9-4.5,28.3,9.4,21.4c9-4.5,66.5,2.8,70.3,13.7C84.9,50.6,42.5,77.5,28,77.5
							C28,77.5,27.8,77.5,27.7,77.5 M5,19.9C-8.3,31.1,6.9,80.1,25.8,83.3C52,87.7,92.1,52.6,84.5,35.4
							c-5.6-12.7-37.2-19.2-59.1-19.2C15.8,16.2,8,17.4,5,19.9"></path>
					</defs>
					<clipPath id="LOGO_TG_SVGID_2_">
						<use xlink:href="#SVGID_1_" style="overflow:visible;"></use>
					</clipPath>

						<linearGradient id="LOGO_TG_SVGID_3_" gradientUnits="userSpaceOnUse" x1="-506.4817" y1="296.9157" x2="-505.317" y2="296.9157" gradientTransform="matrix(-22.9745 36.4055 -36.4055 -22.9745 -758.8589 25271.0137)">
						<stop offset="0" style="stop-color:#F7AA9E"></stop>
						<stop offset="7.137017e-02" style="stop-color:#F58B85"></stop>
						<stop offset="0.1768" style="stop-color:#F26366"></stop>
						<stop offset="0.2806" style="stop-color:#EF434E"></stop>
						<stop offset="0.3811" style="stop-color:#ED2D3C"></stop>
						<stop offset="0.4767" style="stop-color:#EC2032"></stop>
						<stop offset="0.5622" style="stop-color:#EC1B2E"></stop>
						<stop offset="0.6858" style="stop-color:#E91B2D"></stop>
						<stop offset="0.7913" style="stop-color:#DE1B2B"></stop>
						<stop offset="0.89" style="stop-color:#CD1A26"></stop>
						<stop offset="0.9842" style="stop-color:#B41A20"></stop>
						<stop offset="1" style="stop-color:#AF1A1F"></stop>
					</linearGradient>
					<polygon class="logo-tg-st2" points="124.4,36.5 63.6,133 -40.6,67.4 20.4,-29.1 					"></polygon>
				</g>
			</g>
			<g>
				<g>
					<defs>
						<path id="SVGID_4_" d="M8.6,19.9c-16.6,8.6,4.9,60,22.1,60.8C47.6,81.5,87.9,52.2,81,35.9c-4.3-10.2-35.5-18.6-56.6-18.6
							C17.8,17.3,12.2,18.1,8.6,19.9"></path>
					</defs>
					<clipPath id="LOGO_TG_SVGID_5_">
						<use xlink:href="#SVGID_4_" style="overflow:visible;"></use>
					</clipPath>

						<radialGradient id="LOGO_TG_SVGID_6_" cx="-515.3095" cy="319.9642" r="1.1647" gradientTransform="matrix(-49.0643 8.9212 7.4735 41.1113 -27612.5469 -8527.3594)" gradientUnits="userSpaceOnUse">
						<stop offset="0" style="stop-color:#F7AA9E"></stop>
						<stop offset="7.137017e-02" style="stop-color:#F58B85"></stop>
						<stop offset="0.1768" style="stop-color:#F26366"></stop>
						<stop offset="0.2806" style="stop-color:#EF434E"></stop>
						<stop offset="0.3811" style="stop-color:#ED2D3C"></stop>
						<stop offset="0.4767" style="stop-color:#EC2032"></stop>
						<stop offset="0.5622" style="stop-color:#EC1B2E"></stop>
						<stop offset="0.716" style="stop-color:#E91C2D"></stop>
						<stop offset="0.8472" style="stop-color:#DE1D2B"></stop>
						<stop offset="0.9697" style="stop-color:#CD2028"></stop>
						<stop offset="1" style="stop-color:#C72127"></stop>
					</radialGradient>
					<polygon class="logo-tg-st3" points="84.9,0.4 -19.4,19.3 -5,98.5 99.3,79.5 					"></polygon>
				</g>
			</g>
			<g>
				<path class="logo-tg-st1" d="M80,29.8c-3.5,1.1-8.9,2.6-16.4,4.5c-12.3,3.1-20.4,2.8-23.1,2.7c-1.1,0-1.5-0.7-2.1-1.7
					c-0.8-1.2-1.7-2.8-4.3-3.8c-1.4-0.5-2.5-0.7-10.3-0.8l-6.4-0.2c-5-0.1-6.4-0.2-6.9,0.4c-0.3,0.3-0.2,0.7-0.2,0.8
					c0.2,1.4,2.1,3.1,14.5,3.3c8.7,0.2,9.8,2,11,4l0.5,0.9l0.5,0.8c0.6,1,1.2,2.1,3,2.4s8.9-1,21.9-3.4l5.1-0.9
					c7.2-1.3,13.1-3,16.9-4.9C82.8,32.5,81.6,31.1,80,29.8"></path>
				<path class="logo-tg-st1" d="M80,29.7c-3.2,1-8.7,2.6-16.4,4.5c-12.3,3.1-20.4,2.8-23.1,2.7c-1.1,0-1.5-0.7-2.1-1.7
					c-0.8-1.3-1.7-2.8-4.3-3.8c-1.4-0.5-2.6-0.7-10.3-0.8l-6.4-0.2c-5-0.1-6.4-0.2-6.9,0.4c-0.2,0.2-0.3,0.5-0.2,0.8
					c0.2,1.4,2.1,3.1,14.5,3.4c8.7,0.2,9.8,2,11,4l0.5,0.9l0.5,0.8c0.6,1.1,1.3,2.1,3,2.4c1.8,0.3,8.9-1,21.8-3.3l5.2-0.9
					c7-1.3,13-3,16.9-4.9h0.1v-0.1C82.9,32.5,81.6,31.1,80,29.7L80,29.7L80,29.7z M63.7,34.4c7.6-2,13.1-3.5,16.3-4.5
					c1.6,1.3,2.8,2.7,3.7,4.1c-3.9,1.9-9.9,3.6-16.8,4.8l-5.2,0.9c-12.9,2.3-20,3.6-21.8,3.3c-1.7-0.2-2.3-1.3-2.9-2.3l-0.5-0.8
					L35.8,39c-1.2-2-2.3-3.9-11-4.1c-12.4-0.2-14.2-1.9-14.4-3.3c-0.1-0.3,0-0.6,0.2-0.7c0.5-0.6,2-0.5,6.8-0.4l6.4,0.2
					c7.7,0.1,8.9,0.3,10.3,0.8c2.6,1,3.5,2.5,4.3,3.7c0.7,1.1,1.1,1.8,2.2,1.8C43.1,37.2,51.3,37.5,63.7,34.4"></path>
				<path class="logo-tg-st1" d="M84.9,36.5c-4.1,2.7-17.8,10.3-42,14.4c-18.8,3.2-36.6,0.8-40.6,0.4c0.5,1.5,1,3,1.5,4.5
					c3.4,1.5,15.6,5.3,26.4,6.5C42,63.7,42,60,42.2,59c0.3-1.1,1.4-2.1,2.6-2.5c1.3-0.3,5.9,0.3,21.6-4.7
					c10.3-3.3,16.2-8.1,18.9-11.3C85.5,39,85.3,37.7,84.9,36.5"></path>
				<path class="logo-tg-st1" d="M84.9,36.5c-2.5,1.6-16.2,10-41.9,14.3c-11.8,2-25.3,2.1-39.9,0.4l-0.8-0.1v0.1c0.4,1.6,0.9,3.2,1.4,4.7
					c3.7,1.7,16,5.4,26.4,6.5c11.1,1.2,11.7-1.9,12-3.3l0.1-0.2c0.3-1.1,1.4-2.1,2.6-2.4c0.3-0.1,0.6-0.1,1.2-0.1
					c2.3-0.2,7.8-0.5,20.4-4.5c11.7-3.7,17.1-9.2,18.9-11.3C85.5,39,85.3,37.7,84.9,36.5L84.9,36.5L84.9,36.5z M43,51
					c25.5-4.2,39.3-12.6,41.9-14.3c0.3,1.1,0.5,2.3,0.5,3.5v0.3c-1.8,2.1-7.2,7.6-18.9,11.3c-12.5,4-18,4.4-20.3,4.5
					c-0.6,0-1,0.1-1.3,0.1c-1.2,0.3-2.3,1.4-2.7,2.5L42,59.1c-0.3,1.3-1,4.4-11.9,3.2c-10.2-1.1-22.5-4.7-26.3-6.4
					c-0.5-1.4-0.9-3-1.3-4.5c0.1,0,0.6,0.1,0.6,0.1C17.7,53.2,31.1,53,43,51"></path>
				<path class="logo-tg-st1" d="M9.7,45.5c0,0.2,0,0.6,0.5,0.9c0.9,0.5,7.8,2.8,15.4,2.1c7.3-0.7,9.1-1.5,9.6-2.6c0.1-0.2,0.3-0.6,0.2-1.2
					c0-0.2-0.1-0.3-0.1-0.4c-0.5-1.2-1.5-1-2.4-0.7c-0.1,0-0.8,0.2-0.8,0.2c-1.3,0.4-4,1.2-9.9,1.3c-5.1,0.1-8.3-0.5-9.8-0.8
					l-1.3-0.2C10.6,44.3,9.9,44.9,9.7,45.5 M35.4,44.8L35.4,44.8L35.4,44.8z"></path>
				<path class="logo-tg-st1" d="M32.8,43.6L32,43.8c-1.3,0.4-4,1.2-9.9,1.3c-5,0.1-8.2-0.5-9.8-0.8L11,44.1c-0.5,0.1-1.3,0.7-1.4,1.4l0,0
					c0,0.2,0,0.7,0.5,1c0.9,0.5,7.8,2.8,15.4,2.1c7.3-0.7,9.1-1.5,9.6-2.6c0.1-0.2,0.3-0.6,0.2-1.3l-0.1-0.4
					C34.8,43.1,33.7,43.3,32.8,43.6 M22.1,45.2c5.9-0.1,8.6-0.9,9.9-1.3l0.8-0.2c0.9-0.2,1.8-0.4,2.3,0.7l0.1,0.4
					c0.2,0.6,0,1-0.2,1.2c-0.5,1.1-2.2,1.8-9.5,2.5C17.8,49.2,11,47,10.1,46.4c-0.2-0.2-0.3-0.5-0.3-0.7v-0.1
					c0.1-0.6,0.8-1.2,1.3-1.3l1.3,0.2C13.9,44.7,17.1,45.3,22.1,45.2"></path>
				<path class="logo-tg-st1" d="M11,38.2l-0.2,0.6V39c0.1,0.4,0.2,1.4,1.5,1.5l0.4,0.1c1.5,0.2,4.6,0.7,9.8,0.6h4.9c2.5,0,3.5,0,3.9-0.2
					c0.5-0.4,0.5-0.5,0.5-0.9v-0.3c0-1.2-1.2-1.4-2.4-1.4h-1.7L21,38.3c-2.5-0.1-5.2-0.5-7-0.7l-1.8-0.2
					C11.9,37.4,11.3,37.8,11,38.2"></path>
				<path class="logo-tg-st1" d="M11,38.1L11,38.1l-0.2,0.7V39c0.1,0.4,0.2,1.4,1.5,1.6l0.4,0.1c1.6,0.2,4.7,0.7,9.8,0.6h4.9h0.2
					c2.4,0,3.3,0,3.7-0.3c0.5-0.4,0.5-0.5,0.5-1v-0.3c0-1.2-1.2-1.4-2.4-1.4h-1.7L21,38.2c-2.5-0.1-5.2-0.5-7-0.7l-1.8-0.2
					C11.8,37.4,11.2,37.7,11,38.1 M12.3,37.4l1.8,0.2c1.8,0.2,4.5,0.6,7,0.7l6.7,0.1h1.7c1.1,0,2.3,0.2,2.3,1.3V40
					c0,0.4,0,0.5-0.5,0.9c-0.4,0.3-1.3,0.3-3.7,0.2h-0.2h-4.9c-5.1,0-8.2-0.4-9.7-0.6c-0.1,0-0.4-0.1-0.4-0.1
					c-1.3-0.2-1.4-1.1-1.4-1.5v-0.2c0,0,0.1-0.5,0.2-0.6C11.3,37.8,11.9,37.5,12.3,37.4"></path>
			</g>
		</g>
	</g>
</g>
</svg>